<svg width="100%" height="100%" id="svg" viewBox="0 0 1440 490" xmlns="http://www.w3.org/2000/svg" class="transition duration-300 ease-in-out delay-150"><defs><linearGradient id="gradient" x1="50%" y1="100%" x2="50%" y2="0%"><stop offset="5%" stop-color="#ad26ff"></stop><stop offset="95%" stop-color="#67c6ff"></stop></linearGradient></defs><path d="M 0,500 L 0,125 C 102.92857142857142,138.39285714285714 205.85714285714283,151.78571428571428 323,135 C 440.14285714285717,118.21428571428571 571.5,71.25 712,78 C 852.5,84.75 1002.1428571428571,145.21428571428572 1125,162 C 1247.857142857143,178.78571428571428 1343.9285714285716,151.89285714285714 1440,125 L 1440,500 L 0,500 Z" stroke="none" stroke-width="0" fill="url(#gradient)" fill-opacity="0.53" class="transition-all duration-300 ease-in-out delay-150 path-0"></path><defs><linearGradient id="gradient" x1="50%" y1="100%" x2="50%" y2="0%"><stop offset="5%" stop-color="#ad26ff"></stop><stop offset="95%" stop-color="#67c6ff"></stop></linearGradient></defs><path d="M 0,500 L 0,291 C 133.35714285714283,307.3571428571429 266.71428571428567,323.7142857142857 402,318 C 537.2857142857143,312.2857142857143 674.5000000000001,284.5 782,282 C 889.4999999999999,279.5 967.2857142857142,302.2857142857143 1072,308 C 1176.7142857142858,313.7142857142857 1308.357142857143,302.3571428571429 1440,291 L 1440,500 L 0,500 Z" stroke="none" stroke-width="0" fill="url(#gradient)" fill-opacity="1" class="transition-all duration-300 ease-in-out delay-150 path-1"></path></svg>