<svg viewBox="0 0 100 100" xmlns="http://www.w3.org/2000/svg"><path d="M81.5,59.5Q76,69,68.5,76.5Q61,84,48.5,88.5Q36,93,27,83Q18,73,11.5,61.5Q5,50,9.5,37Q14,24,26.5,20.5Q39,17,50,17Q61,17,73.5,20.5Q86,24,86.5,37Q87,50,81.5,59.5Z" stroke="none" fill="#14ff00"></path><path d="M81.5,59.5Q76,69,68.5,76.5Q61,84,48.5,88.5Q36,93,27,83Q18,73,11.5,61.5Q5,50,9.5,37Q14,24,26.5,20.5Q39,17,50,17Q61,17,73.5,20.5Q86,24,86.5,37Q87,50,81.5,59.5Z" transform="translate(-0.24 -7.63)" stroke="#0ca900" stroke-width="1" fill="none"></path></svg>