<svg id="mainSVG" viewBox="0 0 500 500" xmlns="http://www.w3.org/2000/svg" xmlns:xlink="http://www.w3.org/1999/xlink"><rect x="0" y="0" width="500" height="500" fill="transparent"></rect><defs><linearGradient id="gradient" x1="60%" y1="1%" x2="40%" y2="99%"><stop offset="10%" stop-color="#d500ff"></stop><stop offset="90%" stop-color="#0066ff"></stop></linearGradient></defs><path id="blobImage" d="M467,298Q465,346,429.5,378Q394,410,356.5,436Q319,462,272.5,470Q226,478,186,453.5Q146,429,115,399.5Q84,370,69,331Q54,292,44,248Q34,204,59,167Q84,130,114.5,99Q145,68,186.5,54Q228,40,276,31Q324,22,359.5,55.5Q395,89,433,120.5Q471,152,470,201Q469,250,467,298Z" fill="none" stroke-width="15" stroke="url(#gradient)"></path></svg>